# File created by Blade
# Date/Time:  Wed Jan 21 14:28:11 2015
# Frame Rate: 120.000 fps
#------------------------------------------------------
:FULLY-SPECIFIED
:DEGREES
656
root 18.772863 35.451091 -21.603130 -170.657329 -3.674993 -178.810893
Spine -18.689242 -1.140749 1.352946
Head 7.540746 -1.705986 -0.316952
LeftShoulder -11.924685 -37.400148 23.881550
LeftArm 5.826550 9.164125 -4.636293
LeftForeArm 18.991303 -0.000000 -1.945644
LeftHand -8.100497 -0.000000 -7.743346
LeftHandThumb1 -26.253704 0.000000 33.147579
RightShoulder -12.120351 1.356834 -13.763575
RightArm 9.422112 34.259270 5.731168
RightForeArm -42.823716 -0.000000 4.633825
RightHand -7.142831 -0.000000 14.637946
RightHandThumb1 -24.326973 -0.000000 -32.862282
LeftUpLeg -0.446704 8.371764 2.089816
LeftLeg -7.236957 -0.000000 0.000000
LeftFoot -19.967943 27.052563 -12.129560
LeftToeBase 27.266608 -0.000000 -0.000000
RightUpLeg -1.529194 -13.094284 0.118175
RightLeg -4.309956 -0.000000 0.000000
RightFoot -20.288898 -22.387484 16.449216
RightToeBase 25.270780 -0.000000 -0.000000
657
root 18.772824 35.450834 -21.604485 -170.661910 -3.657971 -178.806284
Spine -18.682570 -1.134897 1.367242
Head 7.516993 -1.689274 -0.282590
LeftShoulder -11.921168 -37.396465 23.847631
LeftArm 5.778956 9.113026 -4.659752
LeftForeArm 18.994887 -0.000000 -1.961196
LeftHand -8.072258 -0.000000 -7.804355
LeftHandThumb1 -26.253704 0.000000 33.147579
RightShoulder -12.118477 1.314974 -13.756505
RightArm 9.423209 34.328288 5.749832
RightForeArm -42.684009 -0.000000 4.590432
RightHand -7.012644 0.000000 14.590014
RightHandThumb1 -24.326973 -0.000000 -32.862282
LeftUpLeg -0.437079 8.385034 2.093336
LeftLeg -7.239217 -0.000000 0.000000
LeftFoot -19.979092 27.057297 -12.133016
LeftToeBase 27.270842 -0.000000 -0.000000
RightUpLeg -1.524197 -13.078869 0.119096
RightLeg -4.312055 -0.000000 0.000000
RightFoot -20.289969 -22.395173 16.458783
RightToeBase 25.255521 -0.000000 -0.000000
658
root 18.772830 35.450675 -21.605463 -170.665045 -3.644488 -178.805329
Spine -18.671975 -1.129224 1.363336
Head 7.492602 -1.713823 -0.237681
LeftShoulder -11.915032 -37.402658 23.836386
LeftArm 5.723186 9.078884 -4.700959
LeftForeArm 19.004392 -0.000000 -1.961799
LeftHand -8.049799 -0.000000 -7.838484
LeftHandThumb1 -26.253704 0.000000 33.147579
RightShoulder -12.132254 1.304019 -13.737327
RightArm 9.437039 34.372632 5.786800
RightForeArm -42.763618 -0.000000 4.558899
RightHand -6.962919 -0.000000 14.713374
RightHandThumb1 -24.326973 -0.000000 -32.862282
LeftUpLeg -0.429612 8.379766 2.095408
LeftLeg -7.237520 -0.000000 0.000000
LeftFoot -19.980769 27.070674 -12.121939
LeftToeBase 27.258043 -0.000000 -0.000000
RightUpLeg -1.519366 -13.060356 0.117836
RightLeg -4.312167 -0.000000 0.000000
RightFoot -20.282705 -22.389731 16.520361
RightToeBase 25.081088 -0.000000 -0.000000
659
root 18.773047 35.450755 -21.605887 -170.668750 -3.622723 -178.809231
Spine -18.666092 -1.113136 1.360014
Head 7.491114 -1.734444 -0.234359
LeftShoulder -11.889921 -37.397147 23.796671
LeftArm 5.670164 9.012902 -4.727868
LeftForeArm 18.994225 -0.000000 -1.989005
LeftHand -7.992549 -0.000000 -7.859173
LeftHandThumb1 -26.253704 0.000000 33.147579
RightShoulder -12.121209 1.318809 -13.744248
RightArm 9.418271 34.406048 5.827774
RightForeArm -42.732584 0.000000 4.532010
RightHand -7.140764 -0.000000 14.589246
RightHandThumb1 -24.326973 -0.000000 -32.862282
LeftUpLeg -0.416481 8.390658 2.090612
LeftLeg -7.247681 -0.000000 0.000000
LeftFoot -19.977013 27.075404 -12.136865
LeftToeBase 27.256585 -0.000000 -0.000000
RightUpLeg -1.516284 -13.047337 0.112132
RightLeg -4.319996 -0.000000 0.000000
RightFoot -20.283820 -22.400682 16.456970
RightToeBase 25.199260 -0.000000 -0.000000
660
root 18.772551 35.450463 -21.606581 -170.671327 -3.611369 -178.812346
Spine -18.660589 -1.109820 1.359936
Head 7.482079 -1.754446 -0.216199
LeftShoulder -11.879556 -37.379044 23.773004
LeftArm 5.616718 8.908270 -4.767161
LeftForeArm 18.987509 -0.000000 -1.994548
LeftHand -7.972674 -0.000000 -7.882722
LeftHandThumb1 -26.253704 0.000000 33.147579
RightShoulder -12.108920 1.336333 -13.742746
RightArm 9.388420 34.421230 5.841694
RightForeArm -42.606080 -0.000000 4.522694
RightHand -7.133057 -0.000000 14.573675
RightHandThumb1 -24.326973 -0.000000 -32.862282
LeftUpLeg -0.409786 8.400321 2.085466
LeftLeg -7.249281 -0.000000 0.000000
LeftFoot -19.981056 27.077621 -12.142634
LeftToeBase 27.288754 -0.000000 -0.000000
RightUpLeg -1.512335 -13.044248 0.105320
RightLeg -4.320130 -0.000000 0.000000
RightFoot -20.286880 -22.392368 16.422508
RightToeBase 25.250103 -0.000000 -0.000000
661
root 18.772083 35.450395 -21.607054 -170.669535 -3.602539 -178.817484
Spine -18.663554 -1.103019 1.360433
Head 7.491223 -1.783536 -0.222971
LeftShoulder -11.860825 -37.367762 23.743640
LeftArm 5.568024 8.809261 -4.812786
LeftForeArm 19.032198 -0.000000 -2.013221
LeftHand -8.025019 -0.000000 -7.926902
LeftHandThumb1 -26.253704 0.000000 33.147579
RightShoulder -12.128197 1.317645 -13.751670
RightArm 9.385086 34.596591 5.925706
RightForeArm -42.721142 -0.000000 4.608423
RightHand -7.113509 -0.000000 14.678753
RightHandThumb1 -24.326973 -0.000000 -32.862282
LeftUpLeg -0.410568 8.403064 2.079581
LeftLeg -7.245042 -0.000000 0.000000
LeftFoot -19.978476 27.076003 -12.149090
LeftToeBase 27.218892 -0.000000 -0.000000
RightUpLeg -1.511045 -13.041118 0.098650
RightLeg -4.326347 -0.000000 0.000000
RightFoot -20.294546 -22.393114 16.427013
RightToeBase 25.309779 -0.000000 -0.000000
662
root 18.772285 35.450430 -21.607059 -170.663805 -3.588400 -178.818143
Spine -18.670688 -1.097865 1.360851
Head 7.502598 -1.802911 -0.218292
LeftShoulder -11.851939 -37.345526 23.724158
LeftArm 5.528874 8.713887 -4.854244
LeftForeArm 19.088882 -0.000000 -2.030032
LeftHand -8.027077 -0.000000 -7.965480
LeftHandThumb1 -26.253704 0.000000 33.147579
RightShoulder -12.130103 1.320031 -13.747729
RightArm 9.402564 34.735494 5.983243
RightForeArm -42.822323 -0.000000 4.587768
RightHand -7.095771 -0.000000 14.771248
RightHandThumb1 -24.326973 -0.000000 -32.862282
LeftUpLeg -0.413393 8.420653 2.075930
LeftLeg -7.246781 -0.000000 0.000000
LeftFoot -19.980706 27.070428 -12.146871
LeftToeBase 27.217177 -0.000000 -0.000000
RightUpLeg -1.515939 -13.010062 0.098175
RightLeg -4.331711 -0.000000 0.000000
RightFoot -20.278970 -22.403855 16.430248
RightToeBase 25.248273 -0.000000 -0.000000
